<svg width="32" height="32" viewBox="0 0 64 64" fill="none" xmlns="http://www.w3.org/2000/svg">
  <path d="M32 4L8 14V30C8 44.36 18.16 57.52 32 60C45.84 57.52 56 44.36 56 30V14L32 4Z" fill="#059669"/>
  <rect x="30" y="18" width="4" height="4" rx="2" fill="white"/>
  <rect x="31" y="22" width="2" height="16" fill="white"/>
  <rect x="18" y="24" width="28" height="2" rx="1" fill="white"/>
  <path d="M18 26L14 34H26L22 26H18Z" fill="white" fill-opacity="0.9"/>
  <ellipse cx="20" cy="34" rx="6" ry="2" fill="white" fill-opacity="0.7"/>
  <path d="M42 26L38 34H50L46 26H42Z" fill="white" fill-opacity="0.9"/>
  <ellipse cx="44" cy="34" rx="6" ry="2" fill="white" fill-opacity="0.7"/>
  <rect x="26" y="40" width="12" height="3" rx="1.5" fill="white"/>
  <rect x="24" y="43" width="16" height="3" rx="1.5" fill="white"/>
</svg>
